<svg xmlns="http://www.w3.org/2000/svg" viewBox="0 0 1200 630" role="img" aria-labelledby="title desc">
  <title id="title">Asteroid Code social preview</title>
  <desc id="desc">A light geometric technology preview for Asteroid Code.</desc>
  <defs>
    <linearGradient id="bg" x1="0" y1="0" x2="1" y2="1">
      <stop stop-color="#ffffff"/>
      <stop offset="0.52" stop-color="#f4fbfe"/>
      <stop offset="1" stop-color="#edf3ff"/>
    </linearGradient>
    <pattern id="grid" width="72" height="72" patternUnits="userSpaceOnUse">
      <path d="M72 0H0v72" fill="none" stroke="#172033" stroke-opacity="0.08" stroke-width="1"/>
    </pattern>
  </defs>
  <rect width="1200" height="630" fill="url(#bg)"/>
  <rect width="1200" height="630" fill="url(#grid)"/>
  <circle cx="970" cy="125" r="180" fill="#21b6c8" fill-opacity="0.18"/>
  <circle cx="170" cy="520" r="170" fill="#ff6b4a" fill-opacity="0.12"/>
  <path d="M770 120 1065 240 970 510 640 435 590 230Z" fill="#fff" fill-opacity="0.52" stroke="#21b6c8" stroke-opacity="0.32" stroke-width="3"/>
  <path d="M690 210h270M650 320h360M725 430h235" stroke="#21b6c8" stroke-opacity="0.32" stroke-width="3"/>
  <circle cx="690" cy="210" r="12" fill="#fff" stroke="#21b6c8" stroke-width="6"/>
  <circle cx="1010" cy="320" r="12" fill="#fff" stroke="#f4b84d" stroke-width="6"/>
  <circle cx="725" cy="430" r="12" fill="#fff" stroke="#ff6b4a" stroke-width="6"/>
  <g transform="translate(84 82)">
    <path d="M9 59c18 23 54 24 69-1" fill="none" stroke="#21b6c8" stroke-width="5" stroke-linecap="round" opacity="0.28"/>
    <path d="M73 34c-7-13-22-19-38-14C18 25 9 38 12 52c3 16 20 26 38 21 19-5 31-23 23-39Z" fill="#172033"/>
    <path d="M34 21c18-2 35 8 41 21" fill="none" stroke="#21b6c8" stroke-width="5" stroke-linecap="round"/>
    <circle cx="36" cy="42" r="6" fill="#f7fbff" opacity="0.24"/>
    <circle cx="54" cy="33" r="4" fill="#f7fbff" opacity="0.2"/>
    <circle cx="56" cy="57" r="5" fill="#f7fbff" opacity="0.18"/>
    <circle cx="20" cy="60" r="3" fill="#21b6c8"/>
  </g>
  <text x="84" y="250" fill="#172033" font-family="Inter, Arial, sans-serif" font-size="32" font-weight="800">Asteroid</text>
  <text x="226" y="250" fill="#21b6c8" font-family="Inter, Arial, sans-serif" font-size="28" font-weight="600">code</text>
  <text x="84" y="326" fill="#172033" font-family="Inter, Arial, sans-serif" font-size="76" font-weight="800">Automazioni,</text>
  <text x="84" y="406" fill="#172033" font-family="Inter, Arial, sans-serif" font-size="76" font-weight="800">integrazioni</text>
  <text x="84" y="486" fill="#172033" font-family="Inter, Arial, sans-serif" font-size="76" font-weight="800">e software IT</text>
  <text x="88" y="552" fill="#5f6d84" font-family="Inter, Arial, sans-serif" font-size="28" font-weight="500">Processi manuali trasformati in flussi digitali misurabili.</text>
</svg>
